inDegrees=no
num_controls=7
num_derivatives=13
num_iterations=119
num_multipliers=7
num_parameters=0
num_slacks=7
num_states=26
objective=0.449329
objective_accelerations=0.050903
objective_balance=0.002386
objective_effort=0.019065
objective_height=0.371383
objective_ligament=0.005591
solver_duration=1724.275132
status=Solve_Succeeded
success=true
DataType=double
version=3
OpenSimVersion=4.5
endheader
time	/jointset/ground_pelvis/pelvis_tilt/value	/jointset/ground_pelvis/pelvis_tx/value	/jointset/ground_pelvis/pelvis_ty/value	/jointset/hip_l/hip_flexion_l/value	/jointset/hip_l/hip_adduction_l/value	/jointset/hip_l/hip_rotation_l/value	/jointset/back/lumbar_extension/value	/jointset/patellofemoral_l/patellar_flexion_l/value	/jointset/knee_l/knee_flexion_l/value	/jointset/knee_l/knee_adduction_l/value	/jointset/knee_l/knee_rotation_l/value	/jointset/ankle_l/ankle_angle_l/value	/jointset/subtalar_l/subtalar_angle_l/value	/jointset/ground_pelvis/pelvis_tilt/speed	/jointset/ground_pelvis/pelvis_tx/speed	/jointset/ground_pelvis/pelvis_ty/speed	/jointset/hip_l/hip_flexion_l/speed	/jointset/hip_l/hip_adduction_l/speed	/jointset/hip_l/hip_rotation_l/speed	/jointset/back/lumbar_extension/speed	/jointset/patellofemoral_l/patellar_flexion_l/speed	/jointset/knee_l/knee_flexion_l/speed	/jointset/knee_l/knee_adduction_l/speed	/jointset/knee_l/knee_rotation_l/speed	/jointset/ankle_l/ankle_angle_l/speed	/jointset/subtalar_l/subtalar_angle_l/speed	/forceset/tau_hip_flexion_l	/forceset/tau_hip_adduction_l	/forceset/tau_hip_rotation_l	/forceset/tau_knee_flexion_l	/forceset/tau_ankle_angle_l	/forceset/tau_subtalar_angle_l	/forceset/tau_lumbar_extension	lambda_cid13_p0	lambda_cid13_p1	lambda_cid13_p2	lambda_cid13_p3	lambda_cid13_p4	lambda_cid13_p5	lambda_cid14_p0	/jointset/ground_pelvis/pelvis_tilt/accel	/jointset/ground_pelvis/pelvis_tx/accel	/jointset/ground_pelvis/pelvis_ty/accel	/jointset/hip_l/hip_flexion_l/accel	/jointset/hip_l/hip_adduction_l/accel	/jointset/hip_l/hip_rotation_l/accel	/jointset/back/lumbar_extension/accel	/jointset/patellofemoral_l/patellar_flexion_l/accel	/jointset/knee_l/knee_flexion_l/accel	/jointset/knee_l/knee_adduction_l/accel	/jointset/knee_l/knee_rotation_l/accel	/jointset/ankle_l/ankle_angle_l/accel	/jointset/subtalar_l/subtalar_angle_l/accel	gamma_cid13_p0	gamma_cid13_p1	gamma_cid13_p2	gamma_cid13_p3	gamma_cid13_p4	gamma_cid13_p5	gamma_cid14_p0
0.5	-0.2375684269228823	0.007636222041267919	0.7824693502660883	0.9128752337494188	-0.4396868701307991	-0.2290328144403905	-0.2503382453199909	0.7958716061502451	0.7958716061502151	-0.1326695983476075	-0.1543208561910231	0.1786989583683143	0.004279831967573541	-0.5150644724880122	-0.1094324305441818	-0.4499623365381232	1.980745024008311	-0.229437606363308	0.7131835503419702	-0.1385827881324783	1.965051033409208	1.965051033409151	0.113992235559757	-0.09902909878546015	0.6620329496094982	0.09541853173302672	-0.1211843780608118	0.0173766289109991	-0.0118724459207837	-0.2374214138515206	0.03317280909206927	0.04030058078626656	0.1355533996513012	-21.84954181750965	-17.50675616624869	6.829817318321883	-3.441120439671547	-524.8509600979879	-71.58780211215048	-25.57990310981928	0.4528588045016375	0.4241814542054938	-0.4317123562294924	-1.011942126505503	0.6327468001475323	-0.183302119688078	0.9748590824202696	-1.22917994645072	-1.229179946450702	0.04884283230224441	0.1542653926186867	-0.4787386038166225	0.5087310054126274	-4.69760985359534e-07	-6.040428380822814e-07	2.34570659991992e-06	5.502214818946995e-08	-5.345964923236277e-07	-6.083426864568621e-07	-3.74688400954967e-07
0.51	-0.242695115856569	0.006563126340375639	0.7779491198739034	0.9326282346003846	-0.4419504754759602	-0.2219093989719601	-0.2516760578881444	0.8154574862926649	0.8154574862926498	-0.1315307784001514	-0.1553031328606699	0.1852937970556039	0.005257584436427939	-0.5101965766681185	-0.1051898086170948	-0.4539879523040991	1.969587546862036	-0.2232643989616431	0.7113993346110229	-0.1289959674535425	1.95185622135715	1.951856221357186	0.1137717197451656	-0.09741729812114121	0.6568235183196195	0.1001048298247016	-0.1255823775092503	0.01936382148053818	-0.0119438001781122	-0.2394890211647699	0.0301084182761823	0.04026381883745385	0.1389912570381999	-22.98634115405989	-17.28358465097297	6.784915665931996	-2.779214011674221	-527.7583673434114	-71.02684003007928	-24.68324571283481	0.5152174999087237	0.4238517310030362	-0.3737257329645153	-1.207847951497081	0.6121834269755515	-0.1913572772559215	0.948157267349914	-1.404871949060667	-1.404871949046749	-0.05749125591681575	0.1664458025090821	-0.5587509787758375	0.4443165632505608	-4.613936456194039e-07	-4.486290586968924e-07	2.45236958136035e-06	9.295406084038609e-08	-5.296668142424907e-07	-5.290081208659531e-07	-3.709763704815862e-07
0.52	-0.2477708333262211	0.005532366692562746	0.7733914854148221	0.9522616211913273	-0.4441518336037437	-0.2148069008563305	-0.2529184895081644	0.8349033702916703	0.8349033702916684	-0.1303941621043629	-0.1562689298438318	0.1918332003125546	0.006281347356640253	-0.5048701796812062	-0.1009652199283046	-0.4574431499173902	1.956822172003417	-0.2169881628879975	0.7090000797817625	-0.1195065985058189	1.937051804725999	1.937051804726128	0.1135515052274966	-0.09573316148999929	0.6509458635416466	0.1046206220046024	-0.1299803769576776	0.02135101405008447	-0.01201515443550382	-0.2415566284780125	0.02704402746029756	0.04022705688865074	0.142429114425106	-24.12491284167412	-17.05830767638526	6.737629441023348	-2.150514400389221	-530.7205112211296	-70.51744923797821	-23.78769124341905	0.5445590379053648	0.4205748065461129	-0.317628725692508	-1.333521668974226	0.6533525345436468	-0.3063099393506928	0.9553687361778407	-1.551100862269302	-1.551100862269264	0.04890309168673009	0.1687325859832864	-0.6123833014354862	0.4746298230578014	-4.337446864945492e-07	-2.246366131049677e-07	2.522870237969262e-06	1.391639412592074e-07	-5.089371047083698e-07	-4.149786349266192e-07	-3.533189381152673e-07
0.53	-0.2527913062648653	0.004543877859436047	0.7688021817698204	0.9717595918454059	-0.4462898703494849	-0.2077308360943225	-0.2540663799143364	0.8541933822159793	0.8541933822158703	-0.129259909566641	-0.157217026883765	0.1983108516536999	0.007349659836134842	-0.4991602709781137	-0.09672309501324103	-0.4603160482651363	1.942496996965504	-0.2106086240915427	0.7061067521633704	-0.1100944145241815	1.920695175442827	1.920695175442891	0.1132975785602842	-0.09388277871173389	0.644503511938319	0.1090219523445157	-0.1337292905139235	0.02224931454880989	-0.01210794495518719	-0.2449140618683426	0.02567022459832409	0.04026483413210706	0.1454124474003737	-24.72319002565745	-16.96452933764167	6.716474214054051	-2.012707559616465	-533.7606674017354	-70.29574776473383	-22.89448234975924	0.5937722852553907	0.4274817736853599	-0.2569903764011597	-1.523324515281305	0.6314882790650618	-0.2970737355488343	0.9307034598454577	-1.716185856388357	-1.716185856398159	-0.06267725471060458	0.1942058638414946	-0.6722856008753725	0.4196137723609421	-4.114602620589897e-07	-8.453201062833714e-08	2.546076741764681e-06	1.685835136280712e-07	-4.92401670163532e-07	-3.241974144389111e-07	-3.40122131289819e-07
0.54	-0.2577527670167296	0.003598100363399755	0.7641871751439241	0.9911060489302875	-0.448363864961888	-0.2006869505209926	-0.2551208364345549	0.8733121794684451	0.8733121794682316	-0.1281282236373435	-0.1581464171479043	0.2047216545765927	0.008461331445609158	-0.4930677423252515	-0.09242295251022334	-0.4625837460963055	1.926519458164334	-0.2041797362203398	0.7025642420463628	-0.1008198213149931	1.902808870357766	1.902808870357765	0.1130381835416551	-0.09199180632973485	0.6375761798912328	0.1132924480005432	-0.137478204070189	0.02314761504752868	-0.01220073547479911	-0.2482714952586801	0.02429642173634903	0.04030261137555359	0.1483957803756256	-25.32466749541933	-16.87000229542562	6.694986257670255	-1.90845262303683	-536.8763742611693	-70.12704355657202	-22.00532688117073	0.6210830278593297	0.4321783241369229	-0.1965886223771242	-1.66399442162543	0.6632223494932549	-0.4361464390737827	0.927850581688039	-1.857036022646915	-1.857036022646918	0.04780942140336836	0.1768505067300211	-0.7093793901871753	0.4484628862806588	-3.951110674924379e-07	-3.723948989628845e-08	2.516957799894104e-06	1.794265749629392e-07	-4.805067100749223e-07	-2.591376791317256e-07	-3.318604846372489e-07
